<svg width="166" height="57" viewBox="0 0 166 57" fill="none" xmlns="http://www.w3.org/2000/svg">
<rect x="0.335938" y="0.664062" width="165.333" height="56" rx="6" fill="#1C1C1C"/>
<path d="M33.5765 12.25C33.777 14.0594 33.0548 15.8424 31.9992 17.1529C30.8977 18.4431 29.1355 19.4299 27.4192 19.3028C27.1946 17.5618 28.0642 15.7105 29.0377 14.581C30.138 13.2992 32.0487 12.3171 33.5765 12.25Z" fill="white"/>
<path d="M39.195 22.6876C39.0034 22.8011 35.8293 24.6819 35.8641 28.5176C35.9052 33.1495 39.9464 34.6807 39.9947 34.6963C39.9706 34.8042 39.3618 36.9086 37.8461 39.0405C36.5803 40.9206 35.2542 42.7588 33.1478 42.7899C32.146 42.8134 31.4697 42.5276 30.7649 42.2298C30.0301 41.9193 29.2644 41.5957 28.0666 41.5957C26.7969 41.5957 25.9971 41.93 25.226 42.2523C24.5587 42.5312 23.9128 42.8012 23.0024 42.8379C20.9962 42.911 19.4636 40.8331 18.1519 38.9698C15.5298 35.1675 13.4886 28.255 16.2255 23.5511C17.5516 21.2441 19.9696 19.7585 22.5543 19.7189C23.6925 19.6958 24.7841 20.1313 25.741 20.513C26.4729 20.8049 27.1259 21.0655 27.6608 21.0655C28.1306 21.0655 28.7653 20.8154 29.5051 20.5239C30.671 20.0645 32.0977 19.5023 33.5512 19.6542C34.5452 19.6829 37.3738 20.0439 39.1988 22.6854L39.195 22.6876Z" fill="white"/>
<path fill-rule="evenodd" clip-rule="evenodd" d="M53.7247 13.2827H50.8894V21.6573H53.7247C56.2326 21.6573 57.7057 20.1078 57.7057 17.4671C57.7057 14.8323 56.2267 13.2827 53.7247 13.2827ZM51.9417 14.2229V20.7171H53.6545C55.5661 20.7171 56.6301 19.5564 56.6301 17.4787C56.6301 15.3836 55.572 14.2229 53.6545 14.2229H51.9417Z" fill="white"/>
<path fill-rule="evenodd" clip-rule="evenodd" d="M61.7702 21.7618C60.0866 21.7618 58.9525 20.5604 58.9525 18.6394C58.9525 16.7126 60.0866 15.5171 61.7702 15.5171C63.448 15.5171 64.5821 16.7126 64.5821 18.6394C64.5821 20.5604 63.448 21.7618 61.7702 21.7618ZM63.5473 18.6394C63.5473 20.0613 62.8458 20.8738 61.7702 20.8738C60.6946 20.8738 59.9872 20.0613 59.9872 18.6394C59.9872 17.2175 60.6946 16.405 61.7702 16.405C62.8458 16.405 63.5473 17.2175 63.5473 18.6394Z" fill="white"/>
<path d="M71.0083 21.6573H72.043L73.7383 15.6215H72.7328L71.5169 20.5314H71.4935L70.1138 15.6215H69.1317L67.7579 20.5314H67.7346L66.5186 15.6215H65.5073L67.2084 21.6573H68.2432L69.6111 16.9854H69.6345L71.0083 21.6573Z" fill="white"/>
<path d="M75.9262 15.6215H74.9675V21.6573H75.9847V18.1055C75.9847 17.0841 76.6102 16.4108 77.5689 16.4108C78.5043 16.4108 78.9661 16.9448 78.9661 17.9198V21.6573H79.9833V17.7399C79.9833 16.3702 79.2116 15.5171 77.8787 15.5171C76.9376 15.5171 76.2887 15.9349 75.9496 16.5849H75.9262V15.6215Z" fill="white"/>
<path d="M81.7269 13.2827V21.6573H82.7441V13.2827H81.7269Z" fill="white"/>
<path fill-rule="evenodd" clip-rule="evenodd" d="M84.2188 18.6394C84.2188 20.5604 85.3529 21.7618 87.0365 21.7618C88.7143 21.7618 89.8484 20.5604 89.8484 18.6394C89.8484 16.7126 88.7143 15.5171 87.0365 15.5171C85.3529 15.5171 84.2188 16.7126 84.2188 18.6394ZM87.0365 20.8738C88.1122 20.8738 88.8137 20.0613 88.8137 18.6394C88.8137 17.2175 88.1122 16.405 87.0365 16.405C85.9609 16.405 85.2535 17.2175 85.2535 18.6394C85.2535 20.0613 85.9609 20.8738 87.0365 20.8738Z" fill="white"/>
<path fill-rule="evenodd" clip-rule="evenodd" d="M93.0477 21.7618C91.8376 21.7618 91.025 21.0363 91.025 19.9511C91.025 18.918 91.8259 18.268 93.2289 18.1868L94.971 18.0881V17.5832C94.971 16.8461 94.4799 16.405 93.6381 16.405C92.8548 16.405 92.3637 16.7707 92.2351 17.3626H91.253C91.3231 16.318 92.2234 15.5171 93.6615 15.5171C95.0879 15.5171 95.9882 16.2832 95.9882 17.4845V21.6573H95.0236V20.6185H95.0002C94.6377 21.3091 93.8661 21.7618 93.0477 21.7618ZM94.971 19.3649C94.971 20.2354 94.2344 20.9028 93.2757 20.9028C92.5449 20.9028 92.0597 20.5256 92.0597 19.9511C92.0597 19.3823 92.5274 19.0225 93.3458 18.9702L94.971 18.8716V19.3649Z" fill="white"/>
<path fill-rule="evenodd" clip-rule="evenodd" d="M97.381 18.6394C97.381 20.5314 98.4333 21.7618 99.9825 21.7618C100.859 21.7618 101.555 21.3323 101.947 20.6359H101.964V21.6573H102.935V13.2827H101.917V16.6024H101.894C101.532 15.9407 100.83 15.5171 99.9591 15.5171C98.4274 15.5171 97.381 16.7474 97.381 18.6394ZM100.175 16.405C99.0997 16.405 98.4216 17.2756 98.4216 18.6394C98.4216 20.0091 99.0997 20.8738 100.175 20.8738C101.222 20.8738 101.923 19.9917 101.923 18.6394C101.923 17.293 101.222 16.405 100.175 16.405Z" fill="white"/>
<path fill-rule="evenodd" clip-rule="evenodd" d="M110.081 21.7618C108.398 21.7618 107.264 20.5604 107.264 18.6394C107.264 16.7126 108.398 15.5171 110.081 15.5171C111.759 15.5171 112.893 16.7126 112.893 18.6394C112.893 20.5604 111.759 21.7618 110.081 21.7618ZM111.859 18.6394C111.859 20.0613 111.157 20.8738 110.081 20.8738C109.006 20.8738 108.298 20.0613 108.298 18.6394C108.298 17.2175 109.006 16.405 110.081 16.405C111.157 16.405 111.859 17.2175 111.859 18.6394Z" fill="white"/>
<path d="M115.274 15.6215H114.315V21.6573H115.333V18.1055C115.333 17.0841 115.958 16.4108 116.917 16.4108C117.852 16.4108 118.314 16.9448 118.314 17.9198V21.6573H119.331V17.7399C119.331 16.3702 118.56 15.5171 117.227 15.5171C116.285 15.5171 115.637 15.9349 115.298 16.5849H115.274V15.6215Z" fill="white"/>
<path d="M125.221 14.1648H124.204V15.6215H123.298V16.4515H124.204V20.0903C124.204 21.2511 124.637 21.7037 125.753 21.7037C125.993 21.7037 126.273 21.6863 126.396 21.6573V20.81C126.326 20.8216 126.092 20.839 125.975 20.839C125.455 20.839 125.221 20.5895 125.221 20.0381V16.4515H126.402V15.6215H125.221V14.1648Z" fill="white"/>
<path d="M127.935 13.2827V21.6573H128.952V18.1403C128.952 17.0957 129.578 16.4108 130.589 16.4108C131.542 16.4108 132.027 16.9854 132.027 17.943V21.6573H133.044V17.7573C133.044 16.4108 132.238 15.5171 130.905 15.5171C129.981 15.5171 129.315 15.9117 128.976 16.5849H128.952V13.2827H127.935Z" fill="white"/>
<path fill-rule="evenodd" clip-rule="evenodd" d="M139.769 19.9278H138.769C138.6 20.4966 138.033 20.8854 137.261 20.8854C136.168 20.8854 135.484 20.1252 135.484 18.9702V18.9122H139.845V18.5292C139.845 16.701 138.833 15.5171 137.191 15.5171C135.513 15.5171 134.437 16.7881 134.437 18.6626C134.437 20.5604 135.495 21.7618 137.238 21.7618C138.565 21.7618 139.593 20.9841 139.769 19.9278ZM137.173 16.3934C136.22 16.3934 135.554 17.1189 135.49 18.1229H138.793C138.769 17.1131 138.132 16.3934 137.173 16.3934Z" fill="white"/>
<path fill-rule="evenodd" clip-rule="evenodd" d="M60.74 42.1874L59.2668 37.8663H53.1286L51.6555 42.1874H49.0551L54.8696 26.1995H57.5704L63.385 42.1874H60.74ZM53.7648 35.872L56.1642 28.8586H56.2312L58.6307 35.872H53.7648Z" fill="white"/>
<path fill-rule="evenodd" clip-rule="evenodd" d="M76.4734 36.3595C76.4734 32.67 74.5092 30.3432 71.5294 30.3432C69.833 30.3432 68.4826 31.1964 67.7907 32.537H67.746V30.5316H65.4135V46.0431H67.8241V40.2706H67.8799C68.5496 41.5669 69.8888 42.3868 71.574 42.3868C74.5203 42.3868 76.4734 40.049 76.4734 36.3595ZM70.8932 40.3592C72.8016 40.3592 73.9958 38.8081 73.9958 36.3595C73.9958 33.922 72.8016 32.3597 70.8932 32.3597C69.0518 32.3597 67.813 33.9552 67.813 36.3595C67.813 38.7859 69.0406 40.3592 70.8932 40.3592Z" fill="white"/>
<path fill-rule="evenodd" clip-rule="evenodd" d="M84.9861 30.3432C87.9659 30.3432 89.9301 32.67 89.9301 36.3595C89.9301 40.049 87.9771 42.3868 85.0307 42.3868C83.3455 42.3868 82.0063 41.5669 81.3366 40.2706H81.2808V46.0431H78.8702V30.5316H81.2027V32.537H81.2474C81.9393 31.1964 83.2897 30.3432 84.9861 30.3432ZM87.4525 36.3595C87.4525 38.8081 86.2584 40.3592 84.3499 40.3592C82.4973 40.3592 81.2697 38.7859 81.2697 36.3595C81.2697 33.9552 82.5085 32.3597 84.3499 32.3597C86.2584 32.3597 87.4525 33.922 87.4525 36.3595Z" fill="white"/>
<path d="M99.545 37.7334H97.0786C97.2348 40.6252 99.6454 42.4533 103.217 42.4533C107.034 42.4533 109.433 40.5808 109.433 37.5893C109.433 35.2515 108.06 33.933 104.757 33.1575L102.982 32.7254C100.907 32.2157 100.058 31.5509 100.058 30.4208C100.058 29.0026 101.386 28.0276 103.328 28.0276C105.27 28.0276 106.598 28.9915 106.743 30.587H109.176C109.098 27.8282 106.766 25.9335 103.362 25.9335C99.9245 25.9335 97.5027 27.8282 97.5027 30.587C97.5027 32.814 98.8754 34.1879 101.833 34.897L103.92 35.3956C106.007 35.9052 106.889 36.6476 106.889 37.8885C106.889 39.3178 105.426 40.3592 103.395 40.3592C101.275 40.3592 99.7236 39.3178 99.545 37.7334Z" fill="white"/>
<path d="M115.055 27.7728H112.633V30.5316H110.926V32.4262H112.633V39.1183C112.633 41.3675 113.56 42.2649 115.937 42.2649C116.473 42.2649 117.008 42.2206 117.276 42.1542V40.2595C117.12 40.2928 116.729 40.3149 116.484 40.3149C115.502 40.3149 115.055 39.8607 115.055 38.8524V32.4262H117.287V30.5316H115.055V27.7728Z" fill="white"/>
<path fill-rule="evenodd" clip-rule="evenodd" d="M119.003 36.3595C119.003 40.1155 121.213 42.409 124.572 42.409C127.932 42.409 130.141 40.1155 130.141 36.3595C130.141 32.6146 127.92 30.3211 124.572 30.3211C121.224 30.3211 119.003 32.6146 119.003 36.3595ZM124.572 40.4368C126.47 40.4368 127.686 38.9521 127.686 36.3595C127.686 33.7779 126.458 32.2933 124.572 32.2933C122.686 32.2933 121.459 33.7779 121.459 36.3595C121.459 38.9521 122.686 40.4368 124.572 40.4368Z" fill="white"/>
<path d="M132.549 30.5316H134.848V32.5149H134.904C135.295 31.1521 136.344 30.3432 137.728 30.3432C138.074 30.3432 138.375 30.3986 138.554 30.4319V32.6589C138.364 32.5813 137.94 32.5259 137.471 32.5259C135.92 32.5259 134.96 33.5563 134.96 35.2072V42.1874H132.549V30.5316Z" fill="white"/>
<path fill-rule="evenodd" clip-rule="evenodd" d="M148.372 38.7721H150.66C150.325 40.8994 148.294 42.4173 145.604 42.4173C142.156 42.4173 140.069 40.1016 140.069 36.4232C140.069 32.7669 142.189 30.3294 145.504 30.3294C148.763 30.3294 150.794 32.6118 150.794 36.1462V36.9661H142.502V37.1101C142.502 39.1377 143.729 40.4783 145.66 40.4783C147.033 40.4783 148.048 39.7914 148.372 38.7721ZM142.502 35.4307L148.372 35.3756C148.372 34.8845 148.165 33.9741 147.679 33.4914C147.192 33.0086 146.476 32.6421 145.504 32.6421C143.545 32.6421 142.502 33.941 142.502 35.4307Z" fill="white"/>
</svg>
