<svg width="166" height="57" viewBox="0 0 166 57" fill="none" xmlns="http://www.w3.org/2000/svg">
<rect x="0.335938" y="0.332031" width="165.333" height="56" rx="6" fill="#1C1C1C"/>
<path d="M51.1607 15.2527H47.7758V16.2499H50.1766C50.0578 17.6483 48.886 18.2447 47.7799 18.2447C46.3647 18.2447 45.1297 17.1392 45.1297 15.5897C45.1297 14.0804 46.3069 12.9181 47.7828 12.9181C48.9219 12.9181 49.5929 13.6387 49.5929 13.6387L50.2961 12.9156C50.2961 12.9156 49.3934 11.918 47.747 11.918C45.6505 11.918 44.0288 13.6746 44.0288 15.5719C44.0288 17.4312 45.5544 19.244 47.8004 19.244C49.776 19.244 51.2221 17.9006 51.2221 15.9139C51.2221 15.4948 51.1607 15.2527 51.1607 15.2527Z" fill="white"/>
<path d="M51.7984 31.3244H59.2364C59.2416 31.3454 59.3708 31.8748 59.3708 32.7771C59.3708 37.1427 56.1933 40.095 51.8525 40.095C46.9168 40.095 43.5645 36.1114 43.5645 32.026C43.5645 27.8567 47.1284 23.9966 51.735 23.9968C55.3528 23.9968 57.3364 26.189 57.3364 26.189L55.7909 27.7778C55.7909 27.7778 54.3164 26.194 51.814 26.194C48.5707 26.194 45.9839 28.7483 45.9839 32.065C45.9839 35.4695 48.6975 37.8987 51.8073 37.8987C54.2378 37.8987 56.8128 36.5882 57.0736 33.5156H51.7984V31.3244Z" fill="white"/>
<path fill-rule="evenodd" clip-rule="evenodd" d="M60.3197 34.8692C60.3197 32.1063 62.5069 29.7375 65.5592 29.7375C68.0679 29.7375 70.7885 31.5024 70.7885 34.9293C70.7885 37.9192 68.4497 40.0856 65.5947 40.0856C62.4411 40.0856 60.3197 37.6727 60.3197 34.8692ZM68.5125 34.9157C68.5125 32.9745 67.0903 31.7697 65.5893 31.7697C63.903 31.7697 62.6068 33.1083 62.6068 34.9006C62.6068 36.7321 63.9192 38.0546 65.5825 38.0546C67.0962 38.0546 68.5125 36.8155 68.5125 34.9157Z" fill="white"/>
<path fill-rule="evenodd" clip-rule="evenodd" d="M77.0776 29.7375C74.0255 29.7375 71.8381 32.1063 71.8381 34.8692C71.8381 37.6727 73.9597 40.0856 77.1135 40.0856C79.9682 40.0856 82.3071 37.9192 82.3071 34.9293C82.3071 31.5024 79.5866 29.7375 77.0776 29.7375ZM77.1079 31.7697C78.6087 31.7697 80.0311 32.9745 80.0311 34.9157C80.0311 36.8155 78.6148 38.0546 77.1009 38.0546C75.4377 38.0546 74.1256 36.7321 74.1256 34.9006C74.1256 33.1083 75.4214 31.7697 77.1079 31.7697Z" fill="white"/>
<path fill-rule="evenodd" clip-rule="evenodd" d="M83.3564 34.9128C83.3564 32.1788 85.5586 29.743 88.3598 29.743C89.5795 29.743 90.4982 30.2116 91.17 30.9304V30.0541H93.3551V39.3513C93.3551 43.0042 91.2323 44.7456 88.4468 44.7456C85.9004 44.7456 84.47 43.1912 83.7593 41.6988L85.7624 40.8675C86.0398 41.5342 86.8384 42.7099 88.4303 42.7099C90.0782 42.7099 91.1699 41.6404 91.1699 39.8553V38.8351C90.5868 39.5069 89.7971 40.0924 88.3115 40.0924C85.9093 40.0924 83.3564 38.0272 83.3564 34.9128ZM88.5626 31.7712C89.9362 31.7712 91.3466 32.9355 91.3466 34.9238C91.3466 36.9448 89.9391 38.0585 88.5323 38.0585C87.039 38.0585 85.6492 36.8547 85.6492 34.943C85.6492 32.9566 87.0926 31.7712 88.5626 31.7712Z" fill="white"/>
<path fill-rule="evenodd" clip-rule="evenodd" d="M98.6689 34.8978C98.6689 31.8179 100.888 29.7305 103.53 29.7305C105.614 29.7305 107.189 31.1106 107.864 32.7627L108.227 33.6063L101.239 36.485C101.656 37.2565 102.33 38.053 103.795 38.0532C105.099 38.0532 105.881 37.3492 106.348 36.6287L108.15 37.8189C107.342 38.892 105.989 40.0895 103.784 40.0895C101.142 40.0895 98.6689 38.1568 98.6689 34.8978ZM103.621 31.7206C104.573 31.7206 105.259 32.223 105.55 32.8258L100.883 34.7622C100.682 33.263 102.113 31.7206 103.621 31.7206Z" fill="white"/>
<path d="M97.4029 39.7823H95.1075V24.5319H97.4029V39.7823Z" fill="white"/>
<path d="M125.884 39.7823H128.179V24.5319H125.884V39.7823Z" fill="white"/>
<path fill-rule="evenodd" clip-rule="evenodd" d="M116.006 39.7823H113.711V24.5319L119.264 24.5317C121.955 24.5317 124.157 26.7179 124.157 29.3901C124.157 32.0621 121.955 34.2483 119.264 34.2483H116.006V39.7823ZM116.006 31.9694V26.8106H119.264C120.688 26.8106 121.862 27.9757 121.862 29.3901C121.862 30.8043 120.688 31.9694 119.264 31.9694H116.006Z" fill="white"/>
<path d="M145.127 44.7456L151.773 29.7308H149.266L146.258 36.5254L143.251 29.7308H140.744L145.005 39.3574L142.62 44.7456H145.127Z" fill="white"/>
<path fill-rule="evenodd" clip-rule="evenodd" d="M137.574 39.7823H139.869V34.2974C140.228 28.6404 133.004 27.3099 130.27 31.388L132.118 32.6184C133.454 30.2986 137.268 30.8324 137.519 33.3186C136.373 33.0171 135.134 32.7986 134.003 32.9122C132.237 33.0896 130.725 34.203 130.485 36.0267C130.355 37.0121 130.577 38.2268 131.269 38.9671C132.349 40.1205 134.122 40.276 135.579 39.8818C136.399 39.6599 137.045 39.1762 137.574 38.5514V39.7823ZM135.033 37.894C136.29 37.5544 137.28 36.6421 137.574 35.3739C136.931 35.1674 136.34 35.0007 135.663 34.9196C131.719 34.3308 132.379 38.6123 135.033 37.894Z" fill="white"/>
<path d="M66.0404 19.1018H64.9958V12.1615H66.0404V19.1018Z" fill="white"/>
<path d="M59.1456 19.1018H60.1904V13.1985H61.9051V12.1615H57.4309V13.1985H59.1456V19.1018Z" fill="white"/>
<path d="M56.3295 19.1018H52.3233V12.1615H56.3295V13.1985H53.368V15.1132H55.973V16.1502H53.368V18.0647H56.3295V19.1018Z" fill="white"/>
<path d="M69.6501 19.1018V13.1985H71.3648V12.1615H66.8909V13.1985H68.6056V19.1018H69.6501Z" fill="white"/>
<path fill-rule="evenodd" clip-rule="evenodd" d="M74.0527 15.5719C74.0527 13.6744 75.6745 11.918 77.771 11.918C79.8675 11.918 81.4893 13.6744 81.4893 15.5719C81.4893 17.4163 79.9879 19.2148 77.771 19.2433C75.5542 19.2148 74.0527 17.4163 74.0527 15.5719ZM77.771 18.2442C76.3696 18.2271 75.1537 17.1272 75.1537 15.5897C75.1537 14.0928 76.312 12.9371 77.771 12.9184C79.2302 12.9371 80.3883 14.0928 80.3883 15.5897C80.3883 17.1272 79.1724 18.2271 77.771 18.2442Z" fill="white"/>
<path d="M83.5775 19.1018H82.5327V12.1615H83.5775L86.9307 17.2143V12.1615H87.9755V19.1018H86.9325L83.5775 14.0464V19.1018Z" fill="white"/>
<path d="M15.5052 20.5748L27.3081 32.2747L15.5619 44.0773C15.2191 43.8611 15.0354 43.3928 15.0323 42.788L14.9258 21.8402C14.9225 21.1778 15.1653 20.7738 15.5052 20.5748Z" fill="white"/>
<path d="M16.8479 20.5905L31.2002 28.3641L27.7963 31.784L16.347 20.4343C16.5205 20.4569 16.6946 20.5074 16.8479 20.5905Z" fill="white"/>
<path d="M31.8384 35.7909L28.288 32.2713L31.8348 28.7078L36.7192 31.353C37.9225 32.0043 37.307 32.8192 36.7192 33.1386L31.8384 35.7909Z" fill="white"/>
<path d="M16.8479 43.9359C16.7394 43.996 16.635 44.0432 16.5349 44.0806L27.7998 32.762L31.2032 36.1358L16.8479 43.9359Z" fill="white"/>
</svg>
